<svg width="316" height="94" viewBox="0 0 316 94" fill="none" xmlns="http://www.w3.org/2000/svg">
<g filter="url(#filter0_d_175_8)">
<rect x="4" y="8" width="307.83" height="77.7336" rx="20" fill="#C29D7A"/>
<rect x="5" y="9" width="305.83" height="75.7336" rx="19" stroke="#E3D1A3" stroke-width="2"/>
</g>
<g filter="url(#filter1_d_175_8)">
<path d="M58.5183 67.192C56.6836 67.192 55.2329 66.6587 54.1663 65.592C53.0996 64.5253 52.5663 63.0747 52.5663 61.24V28.152C53.0356 28.0667 53.7823 27.96 54.8063 27.832C55.8303 27.6613 56.8116 27.576 57.7503 27.576C58.7316 27.576 59.5849 27.6613 60.3103 27.832C61.0783 27.96 61.7183 28.216 62.2303 28.6C62.7423 28.984 63.1263 29.5173 63.3823 30.2C63.6383 30.8827 63.7663 31.7787 63.7663 32.888V58.168H78.4223C78.7209 58.6373 78.9983 59.2773 79.2543 60.088C79.5103 60.856 79.6383 61.6667 79.6383 62.52C79.6383 64.2267 79.2756 65.4427 78.5503 66.168C77.8249 66.8507 76.8649 67.192 75.6703 67.192H58.5183ZM116.114 51.448C116.114 54.0933 115.708 56.4613 114.898 58.552C114.087 60.6 112.935 62.328 111.442 63.736C109.991 65.144 108.242 66.2107 106.194 66.936C104.146 67.6613 101.863 68.024 99.3458 68.024C96.8284 68.024 94.5458 67.64 92.4978 66.872C90.4498 66.104 88.6791 65.016 87.1858 63.608C85.7351 62.1573 84.6044 60.408 83.7938 58.36C82.9831 56.312 82.5778 54.008 82.5778 51.448C82.5778 48.9307 82.9831 46.648 83.7938 44.6C84.6044 42.552 85.7351 40.824 87.1858 39.416C88.6791 37.9653 90.4498 36.856 92.4978 36.088C94.5458 35.32 96.8284 34.936 99.3458 34.936C101.863 34.936 104.146 35.3413 106.194 36.152C108.242 36.92 109.991 38.0293 111.442 39.48C112.935 40.888 114.087 42.616 114.898 44.664C115.708 46.712 116.114 48.9733 116.114 51.448ZM93.7138 51.448C93.7138 54.0507 94.2044 56.056 95.1858 57.464C96.2098 58.8293 97.6178 59.512 99.4097 59.512C101.202 59.512 102.567 58.808 103.506 57.4C104.487 55.992 104.978 54.008 104.978 51.448C104.978 48.888 104.487 46.9253 103.506 45.56C102.524 44.152 101.138 43.448 99.3458 43.448C97.5538 43.448 96.1671 44.152 95.1858 45.56C94.2044 46.9253 93.7138 48.888 93.7138 51.448ZM136.59 34.936C139.022 34.936 141.219 35.256 143.182 35.896C145.187 36.4933 146.872 37.2827 148.238 38.264C149.091 38.8613 149.752 39.5227 150.222 40.248C150.734 40.9733 150.99 41.912 150.99 43.064V65.464C150.99 67.7253 150.563 69.6667 149.71 71.288C148.856 72.952 147.683 74.3173 146.19 75.384C144.739 76.4933 143.011 77.304 141.006 77.816C139.043 78.328 136.931 78.584 134.67 78.584C130.787 78.584 127.736 78.0507 125.518 76.984C123.299 75.96 122.19 74.2747 122.19 71.928C122.19 70.9467 122.382 70.072 122.766 69.304C123.192 68.5787 123.662 68.024 124.174 67.64C125.411 68.3227 126.798 68.8987 128.334 69.368C129.912 69.8373 131.534 70.072 133.198 70.072C135.502 70.072 137.336 69.688 138.702 68.92C140.067 68.152 140.75 66.9147 140.75 65.208V64.184C139 64.952 136.867 65.336 134.35 65.336C132.43 65.336 130.595 65.0587 128.846 64.504C127.139 63.9067 125.624 63.0107 124.302 61.816C123.022 60.5787 121.976 59 121.166 57.08C120.398 55.16 120.014 52.8773 120.014 50.232C120.014 47.6293 120.419 45.368 121.23 43.448C122.083 41.528 123.235 39.9493 124.686 38.712C126.179 37.432 127.928 36.4933 129.934 35.896C131.982 35.256 134.2 34.936 136.59 34.936ZM140.558 44.216C140.259 44.0453 139.811 43.8747 139.214 43.704C138.659 43.5333 137.955 43.448 137.102 43.448C135.011 43.448 133.432 44.0453 132.366 45.24C131.342 46.392 130.83 48.056 130.83 50.232C130.83 52.7067 131.342 54.4987 132.366 55.608C133.432 56.6747 134.776 57.208 136.398 57.208C138.147 57.208 139.534 56.8027 140.558 55.992V44.216ZM202.739 51.448C202.739 54.0933 202.333 56.4613 201.523 58.552C200.712 60.6 199.56 62.328 198.067 63.736C196.616 65.144 194.867 66.2107 192.819 66.936C190.771 67.6613 188.488 68.024 185.971 68.024C183.453 68.024 181.171 67.64 179.123 66.872C177.075 66.104 175.304 65.016 173.811 63.608C172.36 62.1573 171.229 60.408 170.419 58.36C169.608 56.312 169.203 54.008 169.203 51.448C169.203 48.9307 169.608 46.648 170.419 44.6C171.229 42.552 172.36 40.824 173.811 39.416C175.304 37.9653 177.075 36.856 179.123 36.088C181.171 35.32 183.453 34.936 185.971 34.936C188.488 34.936 190.771 35.3413 192.819 36.152C194.867 36.92 196.616 38.0293 198.067 39.48C199.56 40.888 200.712 42.616 201.523 44.664C202.333 46.712 202.739 48.9733 202.739 51.448ZM180.339 51.448C180.339 54.0507 180.829 56.056 181.811 57.464C182.835 58.8293 184.243 59.512 186.035 59.512C187.827 59.512 189.192 58.808 190.131 57.4C191.112 55.992 191.603 54.008 191.603 51.448C191.603 48.888 191.112 46.9253 190.131 45.56C189.149 44.152 187.763 43.448 185.971 43.448C184.179 43.448 182.792 44.152 181.811 45.56C180.829 46.9253 180.339 48.888 180.339 51.448ZM208.047 36.344C208.473 36.216 209.135 36.088 210.031 35.96C210.969 35.832 211.929 35.768 212.911 35.768C213.849 35.768 214.681 35.832 215.407 35.96C216.175 36.088 216.815 36.344 217.327 36.728C217.839 37.112 218.223 37.6453 218.479 38.328C218.777 38.968 218.927 39.8213 218.927 40.888V54.648C218.927 56.3973 219.353 57.656 220.207 58.424C221.06 59.1493 222.297 59.512 223.919 59.512C224.9 59.512 225.689 59.4267 226.287 59.256C226.927 59.0853 227.417 58.9147 227.759 58.744V36.344C228.185 36.216 228.847 36.088 229.743 35.96C230.681 35.832 231.641 35.768 232.623 35.768C233.561 35.768 234.393 35.832 235.119 35.96C235.887 36.088 236.527 36.344 237.039 36.728C237.551 37.112 237.935 37.6453 238.191 38.328C238.489 38.968 238.639 39.8213 238.639 40.888V60.344C238.639 62.4773 237.743 64.0773 235.951 65.144C234.457 66.0827 232.665 66.7867 230.575 67.256C228.527 67.768 226.287 68.024 223.855 68.024C221.551 68.024 219.417 67.768 217.455 67.256C215.535 66.744 213.871 65.9547 212.463 64.888C211.055 63.8213 209.967 62.456 209.199 60.792C208.431 59.0853 208.047 57.0373 208.047 54.648V36.344ZM256.177 56.312C256.177 57.4213 256.518 58.2107 257.201 58.68C257.926 59.1493 258.929 59.384 260.209 59.384C260.849 59.384 261.51 59.3413 262.193 59.256C262.875 59.128 263.473 58.9787 263.985 58.808C264.369 59.2773 264.689 59.8107 264.945 60.408C265.243 60.9627 265.393 61.6453 265.393 62.456C265.393 64.0773 264.774 65.4 263.537 66.424C262.342 67.448 260.209 67.96 257.137 67.96C253.382 67.96 250.481 67.1067 248.433 65.4C246.427 63.6933 245.425 60.92 245.425 57.08V29.688C245.894 29.56 246.555 29.432 247.409 29.304C248.305 29.1333 249.243 29.048 250.225 29.048C252.102 29.048 253.553 29.3893 254.577 30.072C255.643 30.712 256.177 32.0987 256.177 34.232V38.328H264.561C264.817 38.7973 265.051 39.3947 265.265 40.12C265.521 40.8027 265.649 41.5707 265.649 42.424C265.649 43.9173 265.307 45.0053 264.625 45.688C263.985 46.328 263.11 46.648 262.001 46.648H256.177V56.312Z" fill="white"/>
</g>
<defs>
<filter id="filter0_d_175_8" x="0" y="8" width="315.83" height="85.7336" filterUnits="userSpaceOnUse" color-interpolation-filters="sRGB">
<feFlood flood-opacity="0" result="BackgroundImageFix"/>
<feColorMatrix in="SourceAlpha" type="matrix" values="0 0 0 0 0 0 0 0 0 0 0 0 0 0 0 0 0 0 127 0" result="hardAlpha"/>
<feOffset dy="4"/>
<feGaussianBlur stdDeviation="2"/>
<feComposite in2="hardAlpha" operator="out"/>
<feColorMatrix type="matrix" values="0 0 0 0 0 0 0 0 0 0 0 0 0 0 0 0 0 0 0.3 0"/>
<feBlend mode="normal" in2="BackgroundImageFix" result="effect1_dropShadow_175_8"/>
<feBlend mode="normal" in="SourceGraphic" in2="effect1_dropShadow_175_8" result="shape"/>
</filter>
<filter id="filter1_d_175_8" x="48.5662" y="27.5759" width="221.083" height="59.0081" filterUnits="userSpaceOnUse" color-interpolation-filters="sRGB">
<feFlood flood-opacity="0" result="BackgroundImageFix"/>
<feColorMatrix in="SourceAlpha" type="matrix" values="0 0 0 0 0 0 0 0 0 0 0 0 0 0 0 0 0 0 127 0" result="hardAlpha"/>
<feOffset dy="4"/>
<feGaussianBlur stdDeviation="2"/>
<feComposite in2="hardAlpha" operator="out"/>
<feColorMatrix type="matrix" values="0 0 0 0 0 0 0 0 0 0 0 0 0 0 0 0 0 0 0.25 0"/>
<feBlend mode="normal" in2="BackgroundImageFix" result="effect1_dropShadow_175_8"/>
<feBlend mode="normal" in="SourceGraphic" in2="effect1_dropShadow_175_8" result="shape"/>
</filter>
</defs>
</svg>
